<svg xmlns="http://www.w3.org/2000/svg" x="0px" y="0px" width="100" height="100" viewBox="0 0 100 100">
<path fill="#c7ede6" d="M87.136,56.729c1.135-2.155,1.785-4.605,1.785-7.21c0-6.621-4.159-12.257-10.001-14.478	c0-0.008,0.001-0.015,0.001-0.022c0-11.598-9.402-21-21-21c-9.784,0-17.981,6.701-20.313,15.757	c-1.476-0.485-3.048-0.757-4.687-0.757c-7.692,0-14.023,5.793-14.89,13.252c-5.204,1.1-9.11,5.716-9.11,11.248	c0,6.351,5.149,11.5,11.5,11.5c0.177,0,0.352-0.012,0.526-0.022c-0.004,0.175-0.026,0.346-0.026,0.522	c0,11.322,9.178,20.5,20.5,20.5c6.437,0,12.175-2.972,15.934-7.614c2.178,2.225,5.207,3.614,8.566,3.614	c4.65,0,8.674-2.65,10.666-6.518c1.052,0.334,2.171,0.518,3.334,0.518c6.075,0,11-4.925,11-11	C90.921,61.708,89.451,58.746,87.136,56.729z"></path><path fill="#fff" d="M16.817,49.008H6.912c-0.276,0-0.5-0.224-0.5-0.5s0.224-0.5,0.5-0.5h9.905 c0.276,0,0.5,0.224,0.5,0.5S17.094,49.008,16.817,49.008z"></path><path fill="#fff" d="M19.912,49.008h-1c-0.276,0-0.5-0.224-0.5-0.5s0.224-0.5,0.5-0.5h1c0.276,0,0.5,0.224,0.5,0.5 S20.189,49.008,19.912,49.008z"></path><path fill="#fff" d="M24.903,51.008h-8.991c-0.276,0-0.5-0.224-0.5-0.5s0.224-0.5,0.5-0.5h8.991 c0.276,0,0.5,0.224,0.5,0.5S25.179,51.008,24.903,51.008z"></path><path fill="#fff" d="M13.912,51.008h-1c-0.276,0-0.5-0.224-0.5-0.5s0.224-0.5,0.5-0.5h1c0.276,0,0.5,0.224,0.5,0.5 S14.189,51.008,13.912,51.008z"></path><path fill="#fff" d="M10.912,51.008h-2c-0.276,0-0.5-0.224-0.5-0.5s0.224-0.5,0.5-0.5h2c0.276,0,0.5,0.224,0.5,0.5 S11.189,51.008,10.912,51.008z"></path><path fill="#fff" d="M16.912,53.008h-2c-0.276,0-0.5-0.224-0.5-0.5s0.224-0.5,0.5-0.5h2c0.276,0,0.5,0.224,0.5,0.5 S17.188,53.008,16.912,53.008z"></path><path fill="#fff" d="M19.912,44.008c-0.177,0-0.823,0-1,0c-0.276,0-0.5,0.224-0.5,0.5c0,0.276,0.224,0.5,0.5,0.5 c0.177,0,0.823,0,1,0c0.276,0,0.5-0.224,0.5-0.5C20.412,44.231,20.188,44.008,19.912,44.008z"></path><path fill="#fff" d="M19.912,46.008c-0.177,0-4.823,0-5,0c-0.276,0-0.5,0.224-0.5,0.5c0,0.276,0.224,0.5,0.5,0.5 c0.177,0,4.823,0,5,0c0.276,0,0.5-0.224,0.5-0.5C20.412,46.231,20.188,46.008,19.912,46.008z"></path><path fill="#fff" d="M24.912,48.008c-0.177,0-2.823,0-3,0c-0.276,0-0.5,0.224-0.5,0.5c0,0.276,0.224,0.5,0.5,0.5 c0.177,0,2.823,0,3,0c0.276,0,0.5-0.224,0.5-0.5C25.412,48.231,25.188,48.008,24.912,48.008z"></path><g><path fill="#fff" d="M84.007,64.986h-10c-0.276,0-0.5-0.224-0.5-0.5s0.224-0.5,0.5-0.5h10c0.276,0,0.5,0.224,0.5,0.5 S84.283,64.986,84.007,64.986z"></path><path fill="#fff" d="M88.007,64.986h-2c-0.276,0-0.5-0.224-0.5-0.5s0.224-0.5,0.5-0.5h2c0.276,0,0.5,0.224,0.5,0.5 S88.283,64.986,88.007,64.986z"></path><path fill="#fff" d="M93.007,66.986h-10c-0.276,0-0.5-0.224-0.5-0.5s0.224-0.5,0.5-0.5h10c0.276,0,0.5,0.224,0.5,0.5 S93.284,66.986,93.007,66.986z"></path><path fill="#fff" d="M81.007,66.986h-1c-0.276,0-0.5-0.224-0.5-0.5s0.224-0.5,0.5-0.5h1c0.276,0,0.5,0.224,0.5,0.5 S81.283,66.986,81.007,66.986z"></path><path fill="#fff" d="M77.882,66.986h-1.875c-0.276,0-0.5-0.224-0.5-0.5s0.224-0.5,0.5-0.5h1.875 c0.276,0,0.5,0.224,0.5,0.5S78.158,66.986,77.882,66.986z"></path><path fill="#fff" d="M87.007,62.986h-5c-0.276,0-0.5-0.224-0.5-0.5c0-0.276,0.224-0.5,0.5-0.5h5 c0.276,0,0.5,0.224,0.5,0.5C87.507,62.762,87.284,62.986,87.007,62.986z"></path><path fill="#fff" d="M84.007,68.986h-2c-0.276,0-0.5-0.224-0.5-0.5s0.224-0.5,0.5-0.5h2c0.276,0,0.5,0.224,0.5,0.5 S84.283,68.986,84.007,68.986z"></path></g><g><path fill="#fdfcef" d="M71.007,41.517c0,0-1.567,0-3.5,0s-3.5-1.567-3.5-3.5c0-1.781,1.335-3.234,3.055-3.455 c-0.028-0.179-0.055-0.358-0.055-0.545c0-1.933,1.567-3.5,3.5-3.5c1.032,0,1.95,0.455,2.59,1.165 c0.384-1.808,1.987-3.165,3.91-3.165c2.209,0,4,1.791,4,4c0,0.191-0.03,0.374-0.056,0.558c0.428-0.344,0.965-0.558,1.556-0.558 c1.228,0,2.245,0.887,2.455,2.055c0.179-0.028,0.358-0.055,0.545-0.055c1.933,0,3.5,1.567,3.5,3.5s-1.567,3.5-3.5,3.5s-7.5,0-7.5,0 v0.5h-7V41.517z"></path><path fill="#472b29" d="M69.257,37.017c0.138,0,0.25-0.112,0.25-0.25c0-1.223-0.995-2.218-2.218-2.218 c-0.034,0.009-0.737-0.001-1.244,0.136c-0.133,0.036-0.212,0.173-0.176,0.306c0.036,0.134,0.173,0.213,0.306,0.176 c0.444-0.12,1.1-0.12,1.113-0.118c0.948,0,1.719,0.771,1.719,1.718C69.007,36.905,69.119,37.017,69.257,37.017z"></path><circle cx="76.007" cy="41.517" r=".5" fill="#472b29"></circle><path fill="#472b29" d="M67.507,42.017h3.5c0.276,0,0.5-0.224,0.5-0.5s-0.224-0.5-0.5-0.5h-3.5c-1.654,0-3-1.346-3-3 c0-1.496,1.125-2.768,2.618-2.959c0.134-0.018,0.255-0.088,0.336-0.196s0.115-0.244,0.094-0.377 c-0.024-0.153-0.049-0.308-0.049-0.468c0-1.654,1.346-3,3-3c0.85,0,1.638,0.355,2.219,1c0.125,0.139,0.321,0.198,0.5,0.148 c0.182-0.049,0.321-0.195,0.36-0.379c0.341-1.604,1.779-2.769,3.42-2.769c1.93,0,3.5,1.57,3.5,3.5c0,0.143-0.021,0.28-0.041,0.418 c-0.029,0.203,0.063,0.438,0.242,0.54c0.179,0.102,0.396,0.118,0.556-0.01c0.365-0.293,0.794-0.448,1.243-0.448 c0.966,0,1.792,0.691,1.963,1.644c0.048,0.267,0.296,0.446,0.569,0.405c0.153-0.024,0.308-0.049,0.468-0.049c1.654,0,3,1.346,3,3 s-1.346,3-3,3h-7.5c-0.276,0-0.5,0.224-0.5,0.5s0.224,0.5,0.5,0.5h7.5c2.206,0,4-1.794,4-4s-1.794-4-4-4 c-0.059,0-0.116,0.002-0.174,0.006c-0.414-1.186-1.537-2.006-2.826-2.006c-0.349,0-0.689,0.061-1.011,0.18 c-0.165-2.333-2.115-4.18-4.489-4.18c-1.831,0-3.466,1.127-4.153,2.774c-0.68-0.499-1.502-0.774-2.347-0.774c-2.206,0-4,1.794-4,4 c0,0.048,0.001,0.095,0.004,0.142c-1.743,0.448-3.004,2.027-3.004,3.858C63.507,40.222,65.301,42.017,67.507,42.017z"></path><path fill="#472b29" d="M73.007,41.017c0.159,0,0.841,0,1,0c0.276,0,0.5,0.224,0.5,0.5c0,0.276-0.224,0.5-0.5,0.5 c-0.159,0-0.841,0-1,0c-0.276,0-0.5-0.224-0.5-0.5C72.507,41.241,72.731,41.017,73.007,41.017z"></path></g><g><path fill="#55a7f9" d="M57.868,32.004c0.419,4.192,0.641,8.708,0.355,12.915c-0.073,1.075-0.368,2.166-1.717,2.365 c-0.73,0.108-1.313-0.034-1.631-0.885c-0.089-0.238-0.238-0.538-0.29-0.76c-0.652-1.762-0.285-3.906-0.34-5.705 c-0.045-1.49,0.125-2.993-0.32-4.454c-0.306-1.002-0.854-1.753-2.006-1.727c-1.132,0.025-1.759,0.782-2.002,1.772 c-0.357,1.456-0.411,2.953-0.332,4.458c0.106,2.027,0.202,4.484,0.238,6.514c0.012,0.688-0.065,1.391-0.205,2.065 c-0.181,0.866-0.53,1.661-1.602,1.718c-1.161,0.062-1.505-0.678-1.728-1.668c-0.09-0.4-0.271-3.841-0.435-5.265 c-0.098-0.847-0.125-1.714-0.333-2.534c-0.27-1.066-0.888-1.831-2.161-1.691c-1.227,0.135-1.538,1.032-1.632,2.038 c-0.1,1.065-0.046,2.132,0.123,3.197c0.116,0.733,0.29,3.159,0.293,3.636c0.01,1.57-0.237,2.553-0.551,3.228 c-0.453,0.973-1.29,1.219-2.292,1.014c-0.985-0.201-1.29-0.901-1.209-1.794c0.077-0.851,0.231-1.695,0.372-2.539 c0.205-1.228-0.134-2.122-1.2-2.818c-0.837-0.546-1.72-0.599-2.576-0.065c-1.086,0.678-1.405,1.73-1.223,2.932 c0.471,3.113,1.879,5.904,3.044,8.782c2.591,6.4,5.236,12.331,6.536,19.171c0.09,0.473,0.165,0.952,0.231,1.427 c0.111,0.806-0.418,0.915-0.989,0.923c-2.814,0.14-2.748,0.126-3.317-2.614c-1.204-5.796-3.313-10.848-5.441-16.343 c-1.277-3.296-2.624-6.567-3.503-10.004c-0.174-0.681-0.416-2.46-0.244-3.677c0.415-3.252,3.028-5.217,6.563-4.783 c0.924,0.114,1.327,0.042,1.506-0.944c0.449-2.473,3.734-5.168,7.121-4.36c1.1,0.262,0.989-0.373,1.101-0.962 c0.47-2.467,1.871-4.102,4.376-4.509c1.178-0.191,2.438-0.376,3.708,0.304c0.246-1.577,0.196-4.634,0.548-6.246 c0.533-2.441,1.713-4.434,4.281-5.143c3.237-0.894,5.856,0.577,6.915,3.809c0.776,2.367,0.949,5.403,0.91,7.88 c-0.035,2.193,0.026,4.356-0.187,6.56c-0.116,1.209-0.143,2.303-0.167,3.556c0.02,1.542,0.083,3.085,0.046,4.626 c-0.023,0.973,0.327,1.377,1.296,1.184c1.029-0.277,2.671-1.086,3.965-0.852c3.24,0.875,5.056,4.694,3.971,8.257 c-0.692,2.273-2.913,4.884-4.432,6.613c-1.446,1.647-2.95,3.245-4.364,4.918c-2.773,3.281-4.16,6.516-3.044,10.955 c0.156,0.611,0.575,1.299-0.131,1.435c-0.739,0.143-3.002,0.192-3.375-0.228c-0.673-0.756-0.632-1.878-0.651-3.148 c-0.038-0.828-0.02-1.531-0.003-2.25c0.063-2.578,0.791-4.375,2.09-6.484c1.869-3.035,4.514-5.408,6.904-7.999 c1.135-1.23,2.847-3.43,3.218-5.113c0.27-1.226-0.071-2.252-1.075-2.983c-1.181-0.859-3.403,0.554-3.745,1.965 c-0.15,0.621-0.169,1.273-0.27,1.907c-0.12,0.755-0.5,1.289-1.306,1.428c-0.837,0.145-1.46-0.123-1.868-0.896 c-0.884-1.677-0.971-3.528-0.955-5.33c0.044-4.985,0.208-9.969,0.388-14.952c0.095-2.633,0.182-5.844-0.363-8.428 c-0.246-1.168-0.471-2.654-2.114-2.587c-1.623,0.066-2.062,1.423-2.437,2.777C57.969,26.425,57.766,30.419,57.868,32.004z"></path></g><g><path fill="none" stroke="#472b29" stroke-linejoin="round" stroke-miterlimit="10" stroke-width="1.4" d="M57.868,32.004 c0.419,4.192,0.641,8.708,0.355,12.915c-0.069,1.022-0.335,2.094-1.525,2.335c-0.914,0.185-1.789-0.459-2.044-1.356 c-0.535-1.883-0.351-4.078-0.408-5.962c-0.045-1.49,0.125-2.993-0.32-4.454c-0.306-1.002-0.854-1.753-2.006-1.727 c-1.132,0.025-1.759,0.782-2.002,1.772c-0.357,1.456-0.411,2.953-0.332,4.458c0.104,1.985,0.198,4.383,0.236,6.387 c0.011,0.599-0.033,1.195-0.129,1.787c-0.164,1.007-0.438,2.057-1.676,2.123c-1.161,0.062-1.505-0.678-1.728-1.668 c-0.09-0.4-0.271-3.841-0.435-5.265c-0.098-0.847-0.125-1.714-0.333-2.534c-0.27-1.066-0.888-1.831-2.161-1.691 c-1.227,0.135-1.538,1.032-1.632,2.038c-0.1,1.065-0.046,2.132,0.123,3.197c0.116,0.733,0.29,3.159,0.293,3.636 c0.01,1.57-0.237,2.553-0.551,3.228c-0.453,0.973-1.29,1.219-2.292,1.014c-0.985-0.201-1.29-0.901-1.209-1.794 c0.077-0.851,0.231-1.695,0.372-2.539c0.205-1.231-0.136-2.128-1.21-2.825c-0.77-0.499-1.796-0.541-2.573-0.053 c-1.08,0.679-1.397,1.728-1.215,2.927c0.471,3.113,1.879,5.904,3.044,8.782c2.591,6.4,5.236,12.331,6.536,19.171 c0.09,0.473,0.165,0.952,0.231,1.427c0.111,0.806-0.418,0.915-0.989,0.923c-2.814,0.14-2.748,0.126-3.317-2.614 c-1.204-5.796-3.313-10.848-5.441-16.343c-1.277-3.296-2.624-6.567-3.503-10.004c-0.174-0.681-0.416-2.46-0.244-3.677 c0.415-3.252,3.028-5.217,6.563-4.783c0.924,0.114,1.327,0.042,1.506-0.944c0.449-2.473,3.734-5.168,7.121-4.36 c1.1,0.262,0.989-0.373,1.101-0.962c0.47-2.467,1.871-4.102,4.376-4.509c1.178-0.191,2.438-0.376,3.708,0.304 c0.246-1.577,0.196-4.634,0.548-6.246c0.533-2.441,1.713-4.434,4.281-5.143c3.237-0.894,5.856,0.577,6.915,3.809 c0.776,2.367,0.949,5.403,0.91,7.88c-0.035,2.193,0.026,4.356-0.187,6.56c-0.116,1.209-0.143,2.303-0.167,3.556 c0.02,1.542,0.083,3.085,0.046,4.626c-0.023,0.973,0.327,1.377,1.296,1.184c1.029-0.277,1.708-1.074,3.965-0.852 c3.24,0.875,5.056,4.694,3.971,8.257c-0.692,2.273-2.913,4.884-4.432,6.613c-1.446,1.647-2.95,3.245-4.364,4.918 c-2.773,3.281-3.954,6.783-2.837,11.222c0.156,0.611,0.452,1.332-0.254,1.468c-0.578,0.112-2.383,0.089-3.179,0.082 c-0.238-0.002-0.442-0.149-0.54-0.366c-0.321-0.71-0.374-2.301-0.39-3.392c-0.038-0.828-0.02-1.531-0.003-2.25 c0.063-2.578,0.791-4.375,2.09-6.484c1.869-3.035,4.514-5.408,6.904-7.999c1.135-1.23,2.847-3.43,3.218-5.113 c0.27-1.226,0.028-2.412-1.075-2.983c-1.399-0.725-3.403,0.554-3.745,1.965c-0.15,0.621-0.169,1.273-0.27,1.907 c-0.12,0.755-0.5,1.289-1.306,1.428c-0.837,0.145-1.46-0.123-1.868-0.896c-0.884-1.677-0.971-3.528-0.955-5.33 c0.052-5.877,0.27-11.754,0.486-17.627c0.074-2.009-0.101-4.018-0.51-5.986c-0.233-1.123-0.53-2.417-2.066-2.354 c-1.623,0.066-2.062,1.423-2.437,2.777C57.969,26.425,57.766,30.419,57.868,32.004z"></path></g><g><path fill="#fdfcef" d="M35.968,72.493c0,0,3.64,0,6.125,0s4.5-2.015,4.5-4.5c0-2.333-1.782-4.229-4.055-4.455 c0.022-0.181,0.055-0.358,0.055-0.545c0-2.485-2.015-4.5-4.5-4.5c-1.438,0-2.703,0.686-3.527,1.736 c-0.14-2.636-2.302-4.736-4.973-4.736c-2.761,0-5,2.239-5,5c0,0.446,0.077,0.87,0.187,1.282c-0.642-0.777-1.6-1.282-2.687-1.282 c-1.781,0-3.234,1.335-3.455,3.055c-0.181-0.022-0.358-0.055-0.545-0.055c-2.485,0-4.5,2.015-4.5,4.5s2.015,4.5,4.5,4.5 s9.5,0,9.5,0h5.375v0.5h3V72.493z"></path><path fill="#472b29" d="M29.593,54.993c-3.033,0-5.5,2.467-5.5,5.5c0,0.016,0,0.031,0,0.047 c-0.602-0.354-1.29-0.547-2-0.547c-1.831,0-3.411,1.261-3.858,3.005c-0.047-0.003-0.094-0.005-0.142-0.005c-2.757,0-5,2.243-5,5 c0,2.757,2.243,5,5,5h14.875c0.276,0,0.5-0.224,0.5-0.5c0-0.276-0.224-0.5-0.5-0.5H18.093c-2.206,0-4-1.794-4-4 c0-2.206,1.794-4,4-4c0.117,0,0.23,0.017,0.343,0.032l0.141,0.019c0.021,0.003,0.041,0.004,0.062,0.004 c0.246,0,0.462-0.185,0.495-0.437c0.191-1.493,1.463-2.618,2.959-2.618c0.885,0,1.723,0.401,2.301,1.1 c0.098,0.118,0.241,0.182,0.386,0.182c0.078,0,0.156-0.018,0.228-0.056c0.209-0.107,0.314-0.346,0.254-0.573 c-0.116-0.436-0.17-0.802-0.17-1.153c0-2.481,2.019-4.5,4.5-4.5c2.381,0,4.347,1.872,4.474,4.263 c0.011,0.208,0.15,0.387,0.349,0.45c0.05,0.016,0.101,0.024,0.152,0.024c0.15,0,0.296-0.069,0.392-0.192 c0.771-0.981,1.913-1.544,3.133-1.544c2.206,0,4,1.794,4,4c0,0.117-0.017,0.23-0.032,0.343l-0.019,0.141 c-0.016,0.134,0.022,0.268,0.106,0.373c0.084,0.105,0.207,0.172,0.34,0.185c2.055,0.205,3.604,1.906,3.604,3.958 c0,2.206-1.794,4-4,4h-6.125c-0.276,0-0.5,0.224-0.5,0.5c0,0.276,0.224,0.5,0.5,0.5h6.125c2.757,0,5-2.243,5-5 c0-2.397-1.689-4.413-4.003-4.877c0.002-0.041,0.003-0.082,0.003-0.123c0-2.757-2.243-5-5-5c-1.176,0-2.293,0.416-3.183,1.164 C34.311,56.753,32.148,54.993,29.593,54.993L29.593,54.993z"></path><path fill="#472b29" d="M28.093,61.993c-1.403,0-2.609,0.999-2.913,2.341c-0.367-0.222-0.786-0.341-1.212-0.341 c-1.202,0-2.198,0.897-2.353,2.068c-0.203-0.045-0.396-0.068-0.585-0.068c-1.529,0-2.811,1.2-2.918,2.732 c-0.009,0.138,0.094,0.257,0.232,0.267c0.006,0,0.012,0,0.018,0c0.13,0,0.24-0.101,0.249-0.232 c0.089-1.271,1.151-2.268,2.419-2.268c0.229,0,0.47,0.041,0.738,0.127c0.022,0.007,0.045,0.01,0.067,0.01 c0.055,0,0.11-0.02,0.156-0.054c0.064-0.047,0.102-0.129,0.102-0.209c0-1.034,0.841-1.875,1.875-1.875 c0.447,0,0.885,0.168,1.231,0.473c0.047,0.041,0.106,0.063,0.165,0.063c0.032,0,0.063-0.006,0.093-0.019 c0.088-0.035,0.148-0.117,0.155-0.212c0.102-1.292,1.191-2.305,2.479-2.305c0.208,0,0.425,0.034,0.682,0.107 c0.023,0.007,0.047,0.01,0.07,0.01c0.109,0,0.207-0.073,0.239-0.182c0.038-0.133-0.039-0.271-0.172-0.309 C28.609,62.033,28.349,61.993,28.093,61.993L28.093,61.993z"></path><path fill="#472b29" d="M41.976,63.493c-1.326,0-2.508,0.897-2.874,2.182c-0.038,0.133,0.039,0.271,0.172,0.309 c0.023,0.007,0.046,0.01,0.068,0.01c0.109,0,0.209-0.072,0.24-0.182c0.305-1.071,1.289-1.818,2.393-1.818 c0.117,0,0.23,0.014,0.342,0.029c0.012,0.002,0.023,0.003,0.035,0.003c0.121,0,0.229-0.092,0.246-0.217 c0.019-0.137-0.077-0.263-0.214-0.281C42.25,63.509,42.115,63.493,41.976,63.493L41.976,63.493z"></path></g>
</svg>